<?xml version="1.0" standalone="no"?>
<!DOCTYPE svg PUBLIC "-//W3C//DTD SVG 20010904//EN"
 "http://www.w3.org/TR/2001/REC-SVG-20010904/DTD/svg10.dtd">
<svg version="1.0" xmlns="http://www.w3.org/2000/svg"
 width="64.000000pt" height="64.000000pt" viewBox="0 0 64.000000 64.000000"
 preserveAspectRatio="xMidYMid meet">
<metadata>
Created by potrace 1.15, written by Peter Selinger 2001-2017
</metadata>
<g transform="translate(0.000000,64.000000) scale(0.100000,-0.100000)"
fill="#000000" stroke="none">
<path d="M244 602 c-63 -22 -99 -50 -140 -108 -60 -84 -69 -216 -23 -311 27
-55 97 -117 156 -137 120 -41 338 2 318 63 -8 26 -21 26 -76 1 -55 -25 -173
-27 -227 -4 -101 42 -156 153 -132 269 29 141 180 223 305 166 65 -29 115
-104 115 -171 0 -32 -22 -92 -41 -111 -22 -22 -64 -25 -72 -5 -3 8 4 55 15
105 12 50 18 94 14 98 -4 5 -38 8 -75 8 -57 0 -74 -4 -110 -28 -67 -45 -100
-144 -70 -210 21 -47 91 -61 144 -29 28 17 30 17 47 0 45 -45 146 -8 183 67
28 57 27 165 -2 221 -57 108 -205 161 -329 116z m142 -209 c-3 -10 -10 -39
-17 -65 -13 -54 -47 -91 -79 -86 -31 4 -40 36 -24 83 17 50 56 85 95 85 24 0
29 -4 25 -17z"/>
</g>
</svg>
