<?xml version="1.0" standalone="no"?>
<!DOCTYPE svg PUBLIC "-//W3C//DTD SVG 20010904//EN"
 "http://www.w3.org/TR/2001/REC-SVG-20010904/DTD/svg10.dtd">
<svg version="1.0" xmlns="http://www.w3.org/2000/svg"
 width="64.000000pt" height="64.000000pt" viewBox="0 0 64.000000 64.000000"
 preserveAspectRatio="xMidYMid meet">
<metadata>
Created by potrace 1.15, written by Peter Selinger 2001-2017
</metadata>
<g transform="translate(0.000000,64.000000) scale(0.100000,-0.100000)"
fill="#000000" stroke="none">
<path d="M17 622 c-15 -16 -17 -52 -17 -304 0 -263 1 -286 18 -301 16 -15 52
-17 304 -17 263 0 286 1 301 18 15 16 17 52 17 304 0 263 -1 286 -18 301 -16
15 -52 17 -304 17 -263 0 -286 -1 -301 -18z m373 -211 c14 -10 31 -36 39 -58
13 -36 12 -43 -5 -79 -13 -26 -32 -45 -58 -58 -36 -17 -43 -18 -79 -5 -52 18
-80 56 -80 109 0 96 102 147 183 91z m-270 -96 c0 -75 42 -140 114 -177 60
-31 153 -22 202 18 61 49 77 78 82 144 4 51 7 60 23 60 18 0 19 -10 19 -140
l0 -140 -237 2 -238 3 -3 138 c-2 132 -2 137 18 137 17 0 20 -6 20 -45z"/>
</g>
</svg>
