<?xml version="1.0" standalone="no"?>
<!DOCTYPE svg PUBLIC "-//W3C//DTD SVG 20010904//EN"
 "http://www.w3.org/TR/2001/REC-SVG-20010904/DTD/svg10.dtd">
<svg version="1.0" xmlns="http://www.w3.org/2000/svg"
 width="64.000000pt" height="64.000000pt" viewBox="0 0 64.000000 64.000000"
 preserveAspectRatio="xMidYMid meet">
<metadata>
Created by potrace 1.15, written by Peter Selinger 2001-2017
</metadata>
<g transform="translate(0.000000,64.000000) scale(0.100000,-0.100000)"
fill="#000000" stroke="none">
<path d="M164 521 c-21 -16 -57 -44 -79 -64 -38 -34 -39 -36 -23 -53 14 -14
22 -16 42 -6 34 15 38 8 81 -138 20 -69 42 -132 48 -140 66 -89 173 -27 305
178 48 74 67 142 53 191 -14 45 -37 60 -93 61 -36 0 -54 -6 -78 -26 -26 -22
-70 -90 -70 -108 0 -3 16 -2 35 1 26 4 36 2 41 -10 15 -40 -61 -165 -86 -141
-6 6 -20 59 -30 118 -21 116 -30 140 -60 156 -29 16 -44 12 -86 -19z"/>
</g>
</svg>
